# xmcd
#
# Track frame offsets:
#	150
#	17637
#	34900
#	50352
#	69227
#	90620
#	106577
#	122625
#	135900
#	153930
#	174937
#	193655
#	213387
#	228437
#	239267
#
# Disc length: 3420 seconds
#
# Revision: 1
# Processed by: cddbd v1.5.1PL0 Copyright (c) Steve Scherf et al.
# Submitted via: EasyCDDAExtractor 6.5.7.1
#
DISCID=b50d5a0f
DTITLE=Various Artist - Galpão Gaúcho V 6
DYEAR=1900
DGENRE=Gaúcha
TTITLE0=Chiquito e Bordoneio - Da Estância Prá Venda
TTITLE1=Tchê Garotos - Bandeira do Rio Grande
TTITLE2=Grupo Candeeiro - Tô Chegando no Pedaço
TTITLE3=Os Farrapos e Iedo Silva - Entupido de Alegria
TTITLE4=Os Tiranos - Brasil de Bombacha
TTITLE5=Os Galponeiros - Tempo da Porva Barata
TTITLE6=Fogo de Chão - Estradeiro
TTITLE7=Grupo Minuano - Rever a Castelhana
TTITLE8=Rui Biriva - De-lhe Boca
TTITLE9=Grupo Manotaço - Camponesa
TTITLE10=Os Parceiros - Surungo de Respeito
TTITLE11=Gurizada Medonha - Cocho de Sal
TTITLE12=Sinuelo Pampeano - Camperiando a Sorte
TTITLE13=Adair de Freitas - Num Baile de Rancho
TTITLE14=Ernesto Nunes - Troleando a Rancheira
EXTD=
EXTT0=
EXTT1=
EXTT2=
EXTT3=
EXTT4=
EXTT5=
EXTT6=
EXTT7=
EXTT8=
EXTT9=
EXTT10=
EXTT11=
EXTT12=
EXTT13=
EXTT14=
PLAYORDER=
